{
  "accessors": [
    {
      "bufferView": 2,
      "componentType": 5126,
      "count": 65532,
      "max": [
        8.583123207092285,
        6.67902135848999,
        28.488340377807617
      ],
      "min": [
        -5.616544723510742,
        -5.502318382263184,
        12.813924789428711
      ],
      "type": "VEC3"
    },
    {
      "bufferView": 2,
      "byteOffset": 786384,
      "componentType": 5126,
      "count": 65532,
      "max": [
        0.9923981428146362,
        0.9993870258331299,
        0.9955923557281494
      ],
      "min": [
        -0.9989650845527649,
        -0.9999116063117981,
        -0.999967634677887
      ],
      "type": "VEC3"
    },
    {
      "bufferView": 1,
      "componentType": 5126,
      "count": 65532,
      "max": [
        0.9971818923950195,
        0.9979334473609924
      ],
      "min": [
        0.005402634385973215,
        0.0032997988164424896
      ],
      "type": "VEC2"
    },
    {
      "bufferView": 0,
      "componentType": 5125,
      "count": 362394,
      "type": "SCALAR"
    },
    {
      "bufferView": 2,
      "byteOffset": 1572768,
      "componentType": 5126,
      "count": 65532,
      "max": [
        10.533282279968262,
        9.114431381225586,
        25.397979736328125
      ],
      "min": [
        -3.4907307624816895,
        -12.38070297241211,
        14.243010520935059
      ],
      "type": "VEC3"
    },
    {
      "bufferView": 2,
      "byteOffset": 2359152,
      "componentType": 5126,
      "count": 65532,
      "max": [
        0.999869167804718,
        0.9993822574615479,
        0.9985865354537964
      ],
      "min": [
        -0.9999195337295532,
        -0.99986732006073,
        -0.9999902248382568
      ],
      "type": "VEC3"
    },
    {
      "bufferView": 1,
      "byteOffset": 524256,
      "componentType": 5126,
      "count": 65532,
      "max": [
        0.9923036098480225,
        0.9967517852783203
      ],
      "min": [
        0.0015465985052287579,
        0.002685900777578354
      ],
      "type": "VEC2"
    },
    {
      "bufferView": 0,
      "byteOffset": 1449576,
      "componentType": 5125,
      "count": 363261,
      "type": "SCALAR"
    },
    {
      "bufferView": 2,
      "byteOffset": 3145536,
      "componentType": 5126,
      "count": 65532,
      "max": [
        16.298006057739258,
        10.381875991821289,
        26.432144165039063
      ],
      "min": [
        -2.758575916290283,
        -9.885411262512207,
        12.884666442871094
      ],
      "type": "VEC3"
    },
    {
      "bufferView": 2,
      "byteOffset": 3931920,
      "componentType": 5126,
      "count": 65532,
      "max": [
        0.9999075531959534,
        0.9994167685508728,
        0.9998794794082642
      ],
      "min": [
        -0.9997465014457703,
        -0.9999146461486816,
        -0.9999523758888245
      ],
      "type": "VEC3"
    },
    {
      "bufferView": 1,
      "byteOffset": 1048512,
      "componentType": 5126,
      "count": 65532,
      "max": [
        0.999744176864624,
        0.9976935386657715
      ],
      "min": [
        0.0018389301840215921,
        0.0007853876450099051
      ],
      "type": "VEC2"
    },
    {
      "bufferView": 0,
      "byteOffset": 2902620,
      "componentType": 5125,
      "count": 326835,
      "type": "SCALAR"
    },
    {
      "bufferView": 2,
      "byteOffset": 4718304,
      "componentType": 5126,
      "count": 65532,
      "max": [
        16.373098373413086,
        11.58900260925293,
        29.11690330505371
      ],
      "min": [
        -6.3604865074157715,
        -12.38070297241211,
        16.516626358032227
      ],
      "type": "VEC3"
    },
    {
      "bufferView": 2,
      "byteOffset": 5504688,
      "componentType": 5126,
      "count": 65532,
      "max": [
        0.9999986290931702,
        0.9999004602432251,
        0.9999685883522034
      ],
      "min": [
        -0.9999577403068542,
        -0.9999146461486816,
        -0.9999942779541016
      ],
      "type": "VEC3"
    },
    {
      "bufferView": 1,
      "byteOffset": 1572768,
      "componentType": 5126,
      "count": 65532,
      "max": [
        1.0,
        0.991325855255127
      ],
      "min": [
        0.01144630741328001,
        0.0025663641281425953
      ],
      "type": "VEC2"
    },
    {
      "bufferView": 0,
      "byteOffset": 4209960,
      "componentType": 5125,
      "count": 322899,
      "type": "SCALAR"
    },
    {
      "bufferView": 2,
      "byteOffset": 6291072,
      "componentType": 5126,
      "count": 65532,
      "max": [
        15.653072357177734,
        16.270231246948242,
        30.123310089111328
      ],
      "min": [
        -10.07802963256836,
        1.7591030597686768,
        16.561803817749023
      ],
      "type": "VEC3"
    },
    {
      "bufferView": 2,
      "byteOffset": 7077456,
      "componentType": 5126,
      "count": 65532,
      "max": [
        0.9995082020759583,
        0.9999836087226868,
        0.9999838471412659
      ],
      "min": [
        -0.999916672706604,
        -0.9988383054733276,
        -0.9997225403785706
      ],
      "type": "VEC3"
    },
    {
      "bufferView": 1,
      "byteOffset": 2097024,
      "componentType": 5126,
      "count": 65532,
      "max": [
        0.9915928840637207,
        0.9975617527961731
      ],
      "min": [
        0.04688308387994766,
        0.0036978526040911674
      ],
      "type": "VEC2"
    },
    {
      "bufferView": 0,
      "byteOffset": 5501556,
      "componentType": 5125,
      "count": 358212,
      "type": "SCALAR"
    },
    {
      "bufferView": 2,
      "byteOffset": 7863840,
      "componentType": 5126,
      "count": 65532,
      "max": [
        7.675678730010986,
        13.600584030151367,
        27.081741333007813
      ],
      "min": [
        -12.232677459716797,
        -1.2878769636154175,
        12.817437171936035
      ],
      "type": "VEC3"
    },
    {
      "bufferView": 2,
      "byteOffset": 8650224,
      "componentType": 5126,
      "count": 65532,
      "max": [
        0.9999434947967529,
        0.9999106526374817,
        0.9999610185623169
      ],
      "min": [
        -0.9999601244926453,
        -0.9999985694885254,
        -0.9999762177467346
      ],
      "type": "VEC3"
    },
    {
      "bufferView": 1,
      "byteOffset": 2621280,
      "componentType": 5126,
      "count": 65532,
      "max": [
        0.9999232292175293,
        0.9972378015518188
      ],
      "min": [
        0.0011749148834496737,
        3.638694397523068e-05
      ],
      "type": "VEC2"
    },
    {
      "bufferView": 0,
      "byteOffset": 6934404,
      "componentType": 5125,
      "count": 345156,
      "type": "SCALAR"
    },
    {
      "bufferView": 2,
      "byteOffset": 9436608,
      "componentType": 5126,
      "count": 65532,
      "max": [
        2.670771837234497,
        7.6305766105651855,
        26.068157196044922
      ],
      "min": [
        -12.219128608703613,
        -5.331787586212158,
        2.0581910610198975
      ],
      "type": "VEC3"
    },
    {
      "bufferView": 2,
      "byteOffset": 10222992,
      "componentType": 5126,
      "count": 65532,
      "max": [
        0.9995558857917786,
        0.9999906420707703,
        0.9998957514762878
      ],
      "min": [
        -0.9999871850013733,
        -0.9999901652336121,
        -0.9998347163200378
      ],
      "type": "VEC3"
    },
    {
      "bufferView": 1,
      "byteOffset": 3145536,
      "componentType": 5126,
      "count": 65532,
      "max": [
        0.9999192953109741,
        0.9981684684753418
      ],
      "min": [
        0.0012824024306610227,
        0.0008476999355480075
      ],
      "type": "VEC2"
    },
    {
      "bufferView": 0,
      "byteOffset": 8315028,
      "componentType": 5125,
      "count": 346077,
      "type": "SCALAR"
    },
    {
      "bufferView": 2,
      "byteOffset": 11009376,
      "componentType": 5126,
      "count": 65532,
      "max": [
        16.46586036682129,
        15.681780815124512,
        20.03653335571289
      ],
      "min": [
        -9.446208000183105,
        -5.288228988647461,
        -1.9051800966262817
      ],
      "type": "VEC3"
    },
    {
      "bufferView": 2,
      "byteOffset": 11795760,
      "componentType": 5126,
      "count": 65532,
      "max": [
        0.9999508261680603,
        0.9999430775642395,
        0.9997454285621643
      ],
      "min": [
        -0.9999718070030212,
        -0.999998152256012,
        -0.9999969601631165
      ],
      "type": "VEC3"
    },
    {
      "bufferView": 1,
      "byteOffset": 3669792,
      "componentType": 5126,
      "count": 65532,
      "max": [
        0.9998878836631775,
        0.9984426498413086
      ],
      "min": [
        0.006300997454673052,
        0.004694266244769096
      ],
      "type": "VEC2"
    },
    {
      "bufferView": 0,
      "byteOffset": 9699336,
      "componentType": 5125,
      "count": 344988,
      "type": "SCALAR"
    },
    {
      "bufferView": 2,
      "byteOffset": 12582144,
      "componentType": 5126,
      "count": 65532,
      "max": [
        13.261305809020996,
        14.734525680541992,
        20.29035758972168
      ],
      "min": [
        2.987415313720703,
        1.435309886932373,
        -25.418092727661133
      ],
      "type": "VEC3"
    },
    {
      "bufferView": 2,
      "byteOffset": 13368528,
      "componentType": 5126,
      "count": 65532,
      "max": [
        0.9999855160713196,
        0.9999370574951172,
        0.9998567700386047
      ],
      "min": [
        -0.999983549118042,
        -0.9999556541442871,
        -0.999913215637207
      ],
      "type": "VEC3"
    },
    {
      "bufferView": 1,
      "byteOffset": 4194048,
      "componentType": 5126,
      "count": 65532,
      "max": [
        0.9997312426567078,
        0.9984966516494751
      ],
      "min": [
        0.0024978057481348515,
        0.00538676418364048
      ],
      "type": "VEC2"
    },
    {
      "bufferView": 0,
      "byteOffset": 11079288,
      "componentType": 5125,
      "count": 349734,
      "type": "SCALAR"
    },
    {
      "bufferView": 2,
      "byteOffset": 14154912,
      "componentType": 5126,
      "count": 65532,
      "max": [
        15.646161079406738,
        16.240825653076172,
        24.09206771850586
      ],
      "min": [
        -10.81730842590332,
        -2.1239848136901855,
        -26.973888397216797
      ],
      "type": "VEC3"
    },
    {
      "bufferView": 2,
      "byteOffset": 14941296,
      "componentType": 5126,
      "count": 65532,
      "max": [
        0.9997551441192627,
        0.999979555606842,
        0.9999735355377197
      ],
      "min": [
        -0.9999898076057434,
        -0.999975860118866,
        -0.9999263286590576
      ],
      "type": "VEC3"
    },
    {
      "bufferView": 1,
      "byteOffset": 4718304,
      "componentType": 5126,
      "count": 65532,
      "max": [
        1.0,
        0.9987130165100098
      ],
      "min": [
        0.0017652882961556315,
        0.00010221279080724344
      ],
      "type": "VEC2"
    },
    {
      "bufferView": 0,
      "byteOffset": 12478224,
      "componentType": 5125,
      "count": 308529,
      "type": "SCALAR"
    },
    {
      "bufferView": 2,
      "byteOffset": 15727680,
      "componentType": 5126,
      "count": 65532,
      "max": [
        11.654982566833496,
        19.329561233520508,
        32.68232727050781
      ],
      "min": [
        -5.845132350921631,
        -0.1671324521303177,
        4.711735248565674
      ],
      "type": "VEC3"
    },
    {
      "bufferView": 2,
      "byteOffset": 16514064,
      "componentType": 5126,
      "count": 65532,
      "max": [
        0.9998998045921326,
        0.999961256980896,
        0.9999876022338867
      ],
      "min": [
        -0.9999935030937195,
        -0.9997944831848145,
        -0.999931275844574
      ],
      "type": "VEC3"
    },
    {
      "bufferView": 1,
      "byteOffset": 5242560,
      "componentType": 5126,
      "count": 65532,
      "max": [
        0.9997681975364685,
        0.9990567564964294
      ],
      "min": [
        0.0012088463408872485,
        0.0007853876450099051
      ],
      "type": "VEC2"
    },
    {
      "bufferView": 0,
      "byteOffset": 13712340,
      "componentType": 5125,
      "count": 320241,
      "type": "SCALAR"
    },
    {
      "bufferView": 2,
      "byteOffset": 17300448,
      "componentType": 5126,
      "count": 65532,
      "max": [
        10.68474292755127,
        19.38814353942871,
        32.91454315185547
      ],
      "min": [
        -0.38760247826576233,
        7.796273231506348,
        16.662145614624023
      ],
      "type": "VEC3"
    },
    {
      "bufferView": 2,
      "byteOffset": 18086832,
      "componentType": 5126,
      "count": 65532,
      "max": [
        0.9999409914016724,
        0.9999788999557495,
        0.999946117401123
      ],
      "min": [
        -0.9999691843986511,
        -0.9997692108154297,
        -0.999991238117218
      ],
      "type": "VEC3"
    },
    {
      "bufferView": 1,
      "byteOffset": 5766816,
      "componentType": 5126,
      "count": 65532,
      "max": [
        0.998993992805481,
        0.9999427795410156
      ],
      "min": [
        0.0030209210235625505,
        0.0013155003543943167
      ],
      "type": "VEC2"
    },
    {
      "bufferView": 0,
      "byteOffset": 14993304,
      "componentType": 5125,
      "count": 337203,
      "type": "SCALAR"
    },
    {
      "bufferView": 2,
      "byteOffset": 18873216,
      "componentType": 5126,
      "count": 65534,
      "max": [
        18.99942970275879,
        19.376249313354492,
        33.25425338745117
      ],
      "min": [
        2.9550182819366455,
        0.5241278409957886,
        16.65931510925293
      ],
      "type": "VEC3"
    },
    {
      "bufferView": 2,
      "byteOffset": 19659624,
      "componentType": 5126,
      "count": 65534,
      "max": [
        0.9999986290931702,
        0.9999731779098511,
        0.999955952167511
      ],
      "min": [
        -0.9999724626541138,
        -0.9999509453773499,
        -0.9999868273735046
      ],
      "type": "VEC3"
    },
    {
      "bufferView": 1,
      "byteOffset": 6291072,
      "componentType": 5126,
      "count": 65534,
      "max": [
        0.9994432330131531,
        0.9907710552215576
      ],
      "min": [
        0.001475008437409997,
        0.004147680476307869
      ],
      "type": "VEC2"
    },
    {
      "bufferView": 0,
      "byteOffset": 16342116,
      "componentType": 5125,
      "count": 336942,
      "type": "SCALAR"
    },
    {
      "bufferView": 2,
      "byteOffset": 20446032,
      "componentType": 5126,
      "count": 10564,
      "max": [
        18.60816192626953,
        12.304094314575195,
        31.184778213500977
      ],
      "min": [
        6.97898530960083,
        2.5537428855895996,
        19.61109161376953
      ],
      "type": "VEC3"
    },
    {
      "bufferView": 2,
      "byteOffset": 20572800,
      "componentType": 5126,
      "count": 10564,
      "max": [
        0.9999951720237732,
        0.9998363256454468,
        0.9999613165855408
      ],
      "min": [
        -0.9971863031387329,
        -0.9992426633834839,
        -0.9998310804367065
      ],
      "type": "VEC3"
    },
    {
      "bufferView": 1,
      "byteOffset": 6815344,
      "componentType": 5126,
      "count": 10564,
      "max": [
        0.9938399195671082,
        0.9878747463226318
      ],
      "min": [
        0.08403243124485016,
        0.03629722446203232
      ],
      "type": "VEC2"
    },
    {
      "bufferView": 0,
      "byteOffset": 17689884,
      "componentType": 5125,
      "count": 35841,
      "type": "SCALAR"
    }
  ],
  "asset": {
    "extras": {
      "author": "Léonard_Doye Alias Leoskateman (https://sketchfab.com/leoskateman)",
      "license": "CC-BY-4.0 (http://creativecommons.org/licenses/by/4.0/)",
      "source": "https://sketchfab.com/3d-models/maniacces-wheeled-crane-free-scan-b6b9f0089a724c7382c24ef762176184",
      "title": "Maniacces Wheeled Crane (free scan)"
    },
    "generator": "Sketchfab-12.68.0",
    "version": "2.0"
  },
  "bufferViews": [
    {
      "buffer": 0,
      "byteLength": 17833248,
      "name": "floatBufferViews",
      "target": 34963
    },
    {
      "buffer": 0,
      "byteLength": 6899856,
      "byteOffset": 17833248,
      "byteStride": 8,
      "name": "floatBufferViews",
      "target": 34962
    },
    {
      "buffer": 0,
      "byteLength": 20699568,
      "byteOffset": 24733104,
      "byteStride": 12,
      "name": "floatBufferViews",
      "target": 34962
    }
  ],
  "buffers": [
    {
      "byteLength": 45432672,
      "uri": "scene.bin"
    }
  ],
  "images": [
    {
      "uri": "textures/material0_baseColor.jpeg"
    },
    {
      "uri": "textures/material0_metallicRoughness.png"
    }
  ],
  "materials": [
    {
      "doubleSided": true,
      "name": "material0",
      "occlusionTexture": {
        "index": 1
      },
      "pbrMetallicRoughness": {
        "baseColorTexture": {
          "index": 0
        },
        "metallicFactor": 0.0,
        "metallicRoughnessTexture": {
          "index": 1
        },
        "roughnessFactor": 0.9577051494623774
      }
    }
  ],
  "meshes": [
    {
      "name": "Model_material0_0",
      "primitives": [
        {
          "attributes": {
            "NORMAL": 1,
            "POSITION": 0,
            "TEXCOORD_0": 2
          },
          "indices": 3,
          "material": 0,
          "mode": 4
        }
      ]
    },
    {
      "name": "Model_material0_0",
      "primitives": [
        {
          "attributes": {
            "NORMAL": 5,
            "POSITION": 4,
            "TEXCOORD_0": 6
          },
          "indices": 7,
          "material": 0,
          "mode": 4
        }
      ]
    },
    {
      "name": "Model_material0_0",
      "primitives": [
        {
          "attributes": {
            "NORMAL": 9,
            "POSITION": 8,
            "TEXCOORD_0": 10
          },
          "indices": 11,
          "material": 0,
          "mode": 4
        }
      ]
    },
    {
      "name": "Model_material0_0",
      "primitives": [
        {
          "attributes": {
            "NORMAL": 13,
            "POSITION": 12,
            "TEXCOORD_0": 14
          },
          "indices": 15,
          "material": 0,
          "mode": 4
        }
      ]
    },
    {
      "name": "Model_material0_0",
      "primitives": [
        {
          "attributes": {
            "NORMAL": 17,
            "POSITION": 16,
            "TEXCOORD_0": 18
          },
          "indices": 19,
          "material": 0,
          "mode": 4
        }
      ]
    },
    {
      "name": "Model_material0_0",
      "primitives": [
        {
          "attributes": {
            "NORMAL": 21,
            "POSITION": 20,
            "TEXCOORD_0": 22
          },
          "indices": 23,
          "material": 0,
          "mode": 4
        }
      ]
    },
    {
      "name": "Model_material0_0",
      "primitives": [
        {
          "attributes": {
            "NORMAL": 25,
            "POSITION": 24,
            "TEXCOORD_0": 26
          },
          "indices": 27,
          "material": 0,
          "mode": 4
        }
      ]
    },
    {
      "name": "Model_material0_0",
      "primitives": [
        {
          "attributes": {
            "NORMAL": 29,
            "POSITION": 28,
            "TEXCOORD_0": 30
          },
          "indices": 31,
          "material": 0,
          "mode": 4
        }
      ]
    },
    {
      "name": "Model_material0_0",
      "primitives": [
        {
          "attributes": {
            "NORMAL": 33,
            "POSITION": 32,
            "TEXCOORD_0": 34
          },
          "indices": 35,
          "material": 0,
          "mode": 4
        }
      ]
    },
    {
      "name": "Model_material0_0",
      "primitives": [
        {
          "attributes": {
            "NORMAL": 37,
            "POSITION": 36,
            "TEXCOORD_0": 38
          },
          "indices": 39,
          "material": 0,
          "mode": 4
        }
      ]
    },
    {
      "name": "Model_material0_0",
      "primitives": [
        {
          "attributes": {
            "NORMAL": 41,
            "POSITION": 40,
            "TEXCOORD_0": 42
          },
          "indices": 43,
          "material": 0,
          "mode": 4
        }
      ]
    },
    {
      "name": "Model_material0_0",
      "primitives": [
        {
          "attributes": {
            "NORMAL": 45,
            "POSITION": 44,
            "TEXCOORD_0": 46
          },
          "indices": 47,
          "material": 0,
          "mode": 4
        }
      ]
    },
    {
      "name": "Model_material0_0",
      "primitives": [
        {
          "attributes": {
            "NORMAL": 49,
            "POSITION": 48,
            "TEXCOORD_0": 50
          },
          "indices": 51,
          "material": 0,
          "mode": 4
        }
      ]
    },
    {
      "name": "Model_material0_0",
      "primitives": [
        {
          "attributes": {
            "NORMAL": 53,
            "POSITION": 52,
            "TEXCOORD_0": 54
          },
          "indices": 55,
          "material": 0,
          "mode": 4
        }
      ]
    }
  ],
  "nodes": [
    {
      "children": [
        1
      ],
      "matrix": [
        0.7087143063545227,
        0.2663068771362303,
        0.6533029079437257,
        0.0,
        0.7054135799407959,
        -0.2533700466156004,
        -0.6619632244110109,
        0.0,
        -0.010757959447801113,
        0.9299915432929994,
        -0.36742347478866555,
        0.0,
        3.4233169555664063,
        -2.008581399917602,
        -2.179705619812012,
        1.0
      ],
      "name": "Sketchfab_model"
    },
    {
      "children": [
        2
      ],
      "matrix": [
        1.0,
        0.0,
        0.0,
        0.0,
        0.0,
        -1.0,
        0.0,
        0.0,
        0.0,
        0.0,
        -1.0,
        0.0,
        0.0,
        0.0,
        0.0,
        1.0
      ],
      "name": "model.fbx"
    },
    {
      "children": [
        3
      ],
      "name": "RootNode"
    },
    {
      "children": [
        4,
        5,
        6,
        7,
        8,
        9,
        10,
        11,
        12,
        13,
        14,
        15,
        16,
        17
      ],
      "name": "Model"
    },
    {
      "mesh": 0,
      "name": "Model_material0_0"
    },
    {
      "mesh": 1,
      "name": "Model_material0_0"
    },
    {
      "mesh": 2,
      "name": "Model_material0_0"
    },
    {
      "mesh": 3,
      "name": "Model_material0_0"
    },
    {
      "mesh": 4,
      "name": "Model_material0_0"
    },
    {
      "mesh": 5,
      "name": "Model_material0_0"
    },
    {
      "mesh": 6,
      "name": "Model_material0_0"
    },
    {
      "mesh": 7,
      "name": "Model_material0_0"
    },
    {
      "mesh": 8,
      "name": "Model_material0_0"
    },
    {
      "mesh": 9,
      "name": "Model_material0_0"
    },
    {
      "mesh": 10,
      "name": "Model_material0_0"
    },
    {
      "mesh": 11,
      "name": "Model_material0_0"
    },
    {
      "mesh": 12,
      "name": "Model_material0_0"
    },
    {
      "mesh": 13,
      "name": "Model_material0_0"
    }
  ],
  "samplers": [
    {
      "magFilter": 9729,
      "minFilter": 9987,
      "wrapS": 10497,
      "wrapT": 10497
    }
  ],
  "scene": 0,
  "scenes": [
    {
      "name": "Sketchfab_Scene",
      "nodes": [
        0
      ]
    }
  ],
  "textures": [
    {
      "sampler": 0,
      "source": 0
    },
    {
      "sampler": 0,
      "source": 1
    }
  ]
}
